<svg width="31" height="31" viewBox="0 0 31 31" fill="none" xmlns="http://www.w3.org/2000/svg">
<path d="M15.5 0.656952C7.23501 0.656952 0.500031 7.39193 0.500031 15.6569C0.500031 23.9219 7.23501 30.6569 15.5 30.6569C23.765 30.6569 30.4999 23.9219 30.4999 15.6569C30.4999 7.39193 23.765 0.656952 15.5 0.656952ZM22.67 12.2069L14.165 20.7119C13.955 20.9219 13.67 21.0419 13.37 21.0419C13.07 21.0419 12.785 20.9219 12.575 20.7119L8.33001 16.4669C7.89501 16.0319 7.89501 15.3119 8.33001 14.8769C8.76501 14.4419 9.48501 14.4419 9.92 14.8769L13.37 18.3269L21.08 10.6169C21.515 10.1819 22.235 10.1819 22.67 10.6169C23.105 11.0519 23.105 11.7569 22.67 12.2069Z" fill="white"/>
</svg>
