<svg width="21" height="19" viewBox="0 0 21 19" fill="none" xmlns="http://www.w3.org/2000/svg">
<path d="M20.4691 0.5L20.968 0.466923C20.9547 0.266352 20.8226 0.0932443 20.6327 0.0274997C20.4427 -0.0382449 20.2319 0.0161573 20.0974 0.165597L20.4691 0.5ZM19.5428 4.72701C19.5428 4.45086 19.3189 4.22701 19.0428 4.22701C18.7666 4.22701 18.5428 4.45086 18.5428 4.72701H19.5428ZM10.5 6V6.5H11V6H10.5ZM1.92637 0.5L2.39462 0.324676C2.32485 0.13834 2.15124 0.0111038 1.95255 0.000685841C1.75385 -0.00973207 1.56789 0.0986512 1.47902 0.276669L1.92637 0.5ZM7.5 13.5L7.85383 13.8533C7.97619 13.7307 8.02642 13.5536 7.98661 13.385C7.94679 13.2165 7.8226 13.0806 7.65833 13.0257L7.5 13.5ZM0.5 16.2143V15.7143C0.279732 15.7143 0.0854109 15.8584 0.0215057 16.0692C-0.0423996 16.28 0.0391667 16.5078 0.222353 16.6301L0.5 16.2143ZM17.9515 1.89054L17.5806 2.22589L17.7608 2.42513L18.0264 2.38491L17.9515 1.89054ZM19.9702 0.533077C20.0446 1.65499 19.9783 2.36395 19.7838 2.91243C19.5929 3.45047 19.2609 3.88419 18.6968 4.4247L19.3887 5.14673C20.0033 4.5578 20.4605 3.9957 20.7262 3.24676C20.9882 2.50827 21.0458 1.63909 20.968 0.466923L19.9702 0.533077ZM19.5428 5.76785V4.78571H18.5428V5.76785H19.5428ZM19.5428 4.78571V4.72701H18.5428V4.78571H19.5428ZM10 5V6H11V5H10ZM14.8223 0C12.125 0 10 2.35065 10 5H11C11 2.85063 12.7282 1 14.8223 1V0ZM18.5428 5.76785C18.5428 12.0599 13.2624 17.5 7 17.5V18.5C13.8342 18.5 19.5428 12.5925 19.5428 5.76785H18.5428ZM1.45811 0.675324C2.22305 2.7183 5.10161 6.5 10.5 6.5V5.5C5.62855 5.5 3.05605 2.09122 2.39462 0.324676L1.45811 0.675324ZM1.47902 0.276669C0.00554863 3.22816 -0.242404 6.09715 0.775073 8.53207C1.79256 10.967 4.03467 12.8702 7.34167 13.9743L7.65833 13.0257C4.54668 11.9869 2.57561 10.2473 1.69776 8.14651C0.819895 6.04571 0.994452 3.48613 2.37372 0.723331L1.47902 0.276669ZM7.14617 13.1467C6.26646 14.0278 3.76165 15.7143 0.5 15.7143V16.7143C4.08491 16.7143 6.83174 14.877 7.85383 13.8533L7.14617 13.1467ZM18.3224 1.5552C17.4594 0.600838 16.2107 0 14.8223 0V1C15.916 1 16.8991 1.47214 17.5806 2.22589L18.3224 1.5552ZM18.0264 2.38491C19.0619 2.22808 20.0775 1.68292 20.8409 0.834403L20.0974 0.165597C19.4829 0.848716 18.6743 1.27537 17.8766 1.39618L18.0264 2.38491ZM0.222353 16.6301C2.47016 18.131 4.63313 18.5 7 18.5V17.5C4.75713 17.5 2.80895 17.1548 0.777647 15.7985L0.222353 16.6301Z" fill="#F2F2F2"/>
</svg>
