<svg width="25" height="25" viewBox="0 0 25 25" fill="none" xmlns="http://www.w3.org/2000/svg">
<path d="M17.7463 0.65686H7.26612C2.71385 0.65686 0 3.26086 0 7.62886V17.6729C0 22.0529 2.71385 24.6569 7.26612 24.6569H17.7338C22.2861 24.6569 25 22.0529 25 17.6849V7.62886C25.0125 3.26086 22.2986 0.65686 17.7463 0.65686ZM11.1931 19.2689C10.8304 19.6169 10.1426 19.9529 9.64231 20.0249L6.56577 20.4449C6.45322 20.4569 6.34066 20.4689 6.2281 20.4689C5.71535 20.4689 5.24011 20.3009 4.90244 19.9769C4.48974 19.5809 4.31465 19.0049 4.4147 18.3689L4.85242 15.4169C4.92746 14.9249 5.26512 14.2769 5.64031 13.9289L11.2181 8.57686C11.3181 8.82886 11.4182 9.08086 11.5558 9.36886C11.6808 9.62086 11.8184 9.88486 11.9685 10.1249C12.0935 10.3289 12.2311 10.5209 12.3437 10.6649C12.4812 10.8689 12.6438 11.0609 12.7438 11.1689C12.8064 11.2529 12.8564 11.3129 12.8814 11.3369C13.1941 11.6969 13.5568 12.0329 13.8694 12.2849C13.957 12.3689 14.007 12.4169 14.032 12.4289C14.2196 12.5729 14.4072 12.7169 14.5698 12.8249C14.7699 12.9689 14.97 13.1009 15.1826 13.2089C15.4327 13.3529 15.7078 13.4849 15.983 13.6169C16.2706 13.7369 16.5332 13.8449 16.7959 13.9289L11.1931 19.2689ZM19.2221 11.5649L18.0715 12.6809C17.9965 12.7529 17.8964 12.7889 17.7964 12.7889C17.7589 12.7889 17.7088 12.7889 17.6838 12.7769C15.145 12.0809 13.119 10.1369 12.3937 7.70086C12.3562 7.56886 12.3937 7.42486 12.4937 7.34086L13.6568 6.22486C15.5578 4.40086 17.3712 4.43686 19.2346 6.22486C20.1851 7.13686 20.6478 8.01286 20.6478 8.92486C20.6353 9.78886 20.1726 10.6529 19.2221 11.5649Z" fill="white"/>
</svg>
