<svg width="27" height="27" viewBox="0 0 27 27" fill="none" xmlns="http://www.w3.org/2000/svg">
<path d="M25.5929 2.47092H1.40708C0.911266 2.47092 0.500107 2.05976 0.500107 1.56395C0.500107 1.06814 0.911266 0.656982 1.40708 0.656982H25.5929C26.0887 0.656982 26.4999 1.06814 26.4999 1.56395C26.4999 2.05976 26.0887 2.47092 25.5929 2.47092Z" fill="white"/>
<path d="M19.1477 26.161C18.9905 26.4754 18.664 26.6568 18.3375 26.6568C18.2045 26.6568 18.0594 26.6205 17.9385 26.5601L13.5004 24.3471L9.0622 26.5601C8.94127 26.6205 8.79616 26.6568 8.66314 26.6568C8.33663 26.6568 8.01012 26.4754 7.85291 26.161C7.62315 25.7015 7.80454 25.1573 8.26407 24.9396L12.5934 22.775V19.7034H14.4073V22.775L18.7366 24.9396C19.1961 25.1573 19.3775 25.7015 19.1477 26.161Z" fill="white"/>
<path d="M2.61636 1.56396V16.1964C2.61636 18.4941 3.82566 19.7033 6.12331 19.7033H20.8767C23.1743 19.7033 24.3836 18.4941 24.3836 16.1964V1.56396H2.61636ZM19.5223 9.52111L15.713 12.7015C15.3623 12.9918 14.9149 13.1127 14.4916 13.0401C14.0563 12.9676 13.6814 12.7015 13.4516 12.3146L12.1819 10.1983L8.63864 13.149C8.46934 13.2941 8.26376 13.3546 8.05818 13.3546C7.80423 13.3546 7.53818 13.2457 7.35679 13.0281C7.03028 12.6411 7.09074 12.0727 7.47772 11.7462L11.287 8.56577C11.6377 8.27554 12.0851 8.15461 12.5084 8.22717C12.9437 8.29972 13.3186 8.56577 13.5484 8.95274L14.8181 11.069L18.3613 8.11833C18.7483 7.79182 19.3167 7.85228 19.6432 8.23926C19.9576 8.62623 19.9092 9.1946 19.5223 9.52111Z" fill="white"/>
</svg>
